<svg xmlns="http://www.w3.org/2000/svg" width="339.453" height="655.566" viewBox="0 0 339.453 655.566"><g transform="translate(-1361.835 -265.906)"><g transform="translate(472 211)"><g transform="translate(848.785 -840)"><path d="M322.03,1338.709H270.039a2.775,2.775,0,0,1-2.771-2.771v-25.617a2.775,2.775,0,0,1,2.771-2.771H322.03a2.775,2.775,0,0,1,2.771,2.771v25.617A2.775,2.775,0,0,1,322.03,1338.709Zm-51.991-29.33a.943.943,0,0,0-.941.942v25.617a.943.943,0,0,0,.941.942H322.03a.943.943,0,0,0,.941-.942v-25.617a.943.943,0,0,0-.941-.942Z" fill="#ddd"/><path d="M349.882,1309.379H297.891a2.773,2.773,0,0,1-2.771-2.77v-25.617a2.774,2.774,0,0,1,2.771-2.771h51.991a2.773,2.773,0,0,1,2.77,2.771v25.617A2.772,2.772,0,0,1,349.882,1309.379Zm-51.991-29.329a.944.944,0,0,0-.942.942v25.617a.943.943,0,0,0,.942.941h51.991a.942.942,0,0,0,.941-.941v-25.617a.943.943,0,0,0-.941-.942Z" fill="#ddd"/><path d="M377.734,1338.709H325.742a2.775,2.775,0,0,1-2.771-2.771v-25.617a2.775,2.775,0,0,1,2.771-2.771h51.992a2.774,2.774,0,0,1,2.77,2.771v25.617A2.774,2.774,0,0,1,377.734,1338.709Zm-51.992-29.33a.943.943,0,0,0-.941.942v25.617a.943.943,0,0,0,.941.942h51.992a.942.942,0,0,0,.94-.942v-25.617a.942.942,0,0,0-.94-.942Z" fill="#ddd"/><path d="M295.059,1368.04H243.068a2.774,2.774,0,0,1-2.77-2.772v-25.616a2.774,2.774,0,0,1,2.77-2.772h51.991a2.775,2.775,0,0,1,2.772,2.772v25.616A2.775,2.775,0,0,1,295.059,1368.04Zm-51.991-29.331a.943.943,0,0,0-.941.943v25.616a.943.943,0,0,0,.941.943h51.991a.943.943,0,0,0,.942-.943v-25.616a.943.943,0,0,0-.942-.943Z" fill="#ddd"/></g></g><g transform="translate(1107.537 -814.875)"><g transform="translate(254.298 1293.426)"><g transform="translate(29.047 31.588)"><path d="M326.247,1341.109H270.252a2.988,2.988,0,0,1-2.984-2.984v-27.59a2.988,2.988,0,0,1,2.984-2.984h55.995a2.988,2.988,0,0,1,2.984,2.984v27.59A2.988,2.988,0,0,1,326.247,1341.109Zm-55.995-31.589a1.015,1.015,0,0,0-1.013,1.015v27.59a1.015,1.015,0,0,0,1.013,1.015h55.995a1.015,1.015,0,0,0,1.013-1.015v-27.59a1.015,1.015,0,0,0-1.013-1.015Z" transform="translate(-267.268 -1307.55)" fill="#ddd"/></g><g transform="translate(59.044)"><path d="M354.1,1311.779H298.1a2.987,2.987,0,0,1-2.984-2.983v-27.59a2.988,2.988,0,0,1,2.984-2.984H354.1a2.987,2.987,0,0,1,2.983,2.984v27.59A2.986,2.986,0,0,1,354.1,1311.779ZM298.1,1280.191a1.016,1.016,0,0,0-1.014,1.015v27.59a1.015,1.015,0,0,0,1.014,1.013H354.1a1.014,1.014,0,0,0,1.013-1.013v-27.59a1.015,1.015,0,0,0-1.013-1.015Z" transform="translate(-295.12 -1278.221)" fill="#ddd"/></g><g transform="translate(89.04 31.588)"><path d="M381.951,1341.109h-56a2.988,2.988,0,0,1-2.984-2.984v-27.59a2.988,2.988,0,0,1,2.984-2.984h56a2.988,2.988,0,0,1,2.983,2.984v27.59A2.988,2.988,0,0,1,381.951,1341.109Zm-56-31.589a1.015,1.015,0,0,0-1.013,1.015v27.59a1.015,1.015,0,0,0,1.013,1.015h56a1.015,1.015,0,0,0,1.012-1.015v-27.59a1.015,1.015,0,0,0-1.012-1.015Z" transform="translate(-322.971 -1307.55)" fill="#ddd"/></g><g transform="translate(0 63.176)"><path d="M299.276,1370.44H243.281a2.988,2.988,0,0,1-2.983-2.986v-27.589a2.988,2.988,0,0,1,2.983-2.985h55.995a2.989,2.989,0,0,1,2.985,2.985v27.589A2.989,2.989,0,0,1,299.276,1370.44Zm-55.995-31.59a1.016,1.016,0,0,0-1.013,1.016v27.589a1.016,1.016,0,0,0,1.013,1.016h55.995a1.016,1.016,0,0,0,1.015-1.016v-27.589a1.016,1.016,0,0,0-1.015-1.016Z" transform="translate(-240.298 -1336.88)" fill="#ddd"/></g></g><g transform="translate(351.435 1676.44)"><path d="M343.488,1633.848h29.156v28.63H343.488Z" transform="translate(-343.488 -1633.848)" fill="#f77f89" fill-rule="evenodd"/></g><g transform="translate(460.994 1675.605)"><path d="M445.213,1633.073h29.158V1661.7H445.213Z" transform="translate(-445.213 -1633.073)" fill="#f77f89" fill-rule="evenodd"/></g><g transform="translate(295.669 1117.612)"><path d="M295.786,1119.15l19.347-4.059a5.147,5.147,0,0,1,6.106,3.909l7.967,36.942a5.079,5.079,0,0,1-3.963,6.022l-19.348,4.06a5.146,5.146,0,0,1-6.1-3.91l-7.967-36.942A5.078,5.078,0,0,1,295.786,1119.15Z" transform="translate(-291.71 -1114.979)" fill="#fcba15" fill-rule="evenodd"/></g><g transform="translate(290.179 1137.718)"><path d="M302.445,1177.192c-2.379-3.777-20.339-38.833-14.766-41.805s8.671.123,10.033,3.344c2.952-3.142,9.053-6.848,11.572-4.153,2.935,3.138.506,8.159-1.708,10.12,2.531-.885,4.865-1.408,6.945,1.429,2.587,3.528-.745,13.626-2.517,15.144,2.467,2.339,9.361,8.855,9.361,8.855S304.824,1180.968,302.445,1177.192Z" transform="translate(-286.612 -1133.647)" fill="#f77f89" fill-rule="evenodd"/></g><g transform="translate(465.751 1369.641)"><path d="M449.63,1376.735c0-15.325,15.309-27.749,34.2-27.749s34.193,12.424,34.193,27.749-15.309,27.75-34.193,27.75S449.63,1392.062,449.63,1376.735Z" transform="translate(-449.63 -1348.986)" fill="#61c9a9" fill-rule="evenodd"/></g><g transform="translate(390.458 1080.782)"><path d="M425.628,1080.782c26.332,0,39.424,23.953,40.666,32.28s-.365,25.855,2.01,32.885c6.481,19.109,30.085,29.44,30.085,48.777,0,44.744-49.253,31.79-64.234,31.219s-54.433-1.831-54.433-28.677c0-10.675,7.259-10.675,7.39-24.566.111-11.747-6.453-15.059-6.453-43.2C380.658,1118.033,396.273,1080.679,425.628,1080.782Z" transform="translate(-379.721 -1080.782)" fill-rule="evenodd"/></g><g transform="translate(304.232 1172.481)"><path d="M394.83,1307.025c-.705-7.639-5.316-84.739,17.879-116.211a50.7,50.7,0,0,1-1.709-7.8c-8.505,6.125-40.29,38.459-44.341,43.79-3.666-4.7-43.215-60.183-45.252-60.843s-21.324,8.321-21.745,10.385,47.13,93.752,59.148,97.61c5.024,1.615,12.113-3.343,14.33-4.059.3,4.946-44.05,134.007-1.709,134.967C396.591,1373.46,395.534,1314.667,394.83,1307.025Z" transform="translate(-299.66 -1165.924)" fill="#9ce2cb" fill-rule="evenodd"/></g><g transform="translate(329.915 1337.002)"><path d="M382.476,1318.681,323.507,1661.7l52.072-.213,38.683-164.079L433.6,1664.249l49.943-.638,3.418-344.5Z" transform="translate(-323.507 -1318.681)" fill="#bfbfbf" fill-rule="evenodd"/></g><g transform="translate(383.585 1181.175)"><path d="M456.4,1338.007c-5.406,1.151-73.367-.229-79.578-3.679s-4.909-14.664,10.378-18.443c-5.415-1.354-16.923-7.954-1.411-10.266,2.773-27.738-9.247-129.247,38.534-131.059,33.78-4.981,39.367,24.683,39.367,24.683S461.81,1336.858,456.4,1338.007Z" transform="translate(-373.339 -1173.997)" fill="#fff" fill-rule="evenodd"/></g><g transform="translate(401.687 1093.599)"><path d="M423.026,1092.683c-18.155,0-32.879,17.107-32.879,38.2s14.724,38.174,32.879,38.174a29.927,29.927,0,0,0,20.5-8.529c-.687-9.576-.772-19.295.706-24.381,2.284-6.3,1.454-3.663-.892-3.91l2.063-1.755c0-4.381.727-1.385,5.109-1.385l5.2-.214C454.812,1108.736,440.593,1092.683,423.026,1092.683Z" transform="translate(-390.147 -1092.683)" fill="#f77f89" fill-rule="evenodd"/></g><g transform="translate(394.901 1087.933)"><path d="M385.975,1124.588c7.036-1.855,12.537-5.246,18.615-16.056,7.229,6.653,13.369,6.781,24.115,4.67-.639,5.245-1.15,11.194,5.759,11.9s27.314,9.6,27.314,9.6l-.955-23.286-18.043-20.15-21.046-3.837-18.552,8.7L391.6,1111.154S378.938,1126.442,385.975,1124.588Z" transform="translate(-383.847 -1087.422)" fill-rule="evenodd"/></g><g transform="translate(443.65 1113.857)"><path d="M429.11,1125.82a14.325,14.325,0,1,1,14.329,14.328A14.329,14.329,0,0,1,429.11,1125.82Z" transform="translate(-429.11 -1111.492)" fill="#f77f89" fill-rule="evenodd"/></g><g transform="translate(428.188 1137.065)"><path d="M416.142,1160.732c1.389,6.772.261,15.542-1.389,21.793,4.862,2.779,24.311,3.734,30.217-.52-2.258-8.249-5.691-38.427-2.631-48.949C434.629,1132.386,414.753,1153.959,416.142,1160.732Z" transform="translate(-414.753 -1133.041)" fill="#f77f89" fill-rule="evenodd"/></g><g transform="translate(442.999 1371.348)"><path d="M452.99,1351.608a116.113,116.113,0,0,1-6.85,10.108s-6.472-2.047-8.245.324-13.61,17.343-7.8,22.428,12.336-7.622,14.17-9.274a198.1,198.1,0,0,1,17.027,17.558s-.048-8.956.936-12.115,7.053-11.565,9.083-13.793S456.32,1346.039,452.99,1351.608Z" transform="translate(-428.505 -1350.571)" fill="#f77f89" fill-rule="evenodd"/></g><g transform="translate(444.145 1186.602)"><path d="M445.912,1179.035c-3.085,7.778-6.775,15.39-16.317,20.964-.544,8.719,7.591,128.221,14.347,140.6a59.811,59.811,0,0,0,10.07,13.206c-2.079,5.573-3.931,10.631-3.172,12.253.975,2.1,18.1,16.732,20.411,16.1,1.518-.416,5.822-4.866,9.448-8.9,16.786,9.653,32.2,16.53,32.479,25.552,0,6.434-2.167,8.461-4.818,11.561,3.822-1.888,12.994-11.558,13.191-23.444.247-14.991-14.206-41.223-16.776-47.871,4.718-5.362,21.229-28.06,25.12-48.025C519.966,1252.255,480.512,1180.108,445.912,1179.035Z" transform="translate(-429.569 -1179.035)" fill="#9ce2cb" fill-rule="evenodd"/></g><g transform="translate(469.089 1256.715)"><path d="M453.714,1348.006a.985.985,0,0,1-.885-1.416c7.188-14.758,27.011-55.492,29.447-60.5-2.8-4.222-23.482-35.452-26.626-40.45a.985.985,0,0,1,1.668-1.048c3.343,5.316,26.675,40.523,26.911,40.878a.99.99,0,0,1,.065.976s-22.028,45.266-29.693,61A.987.987,0,0,1,453.714,1348.006Z" transform="translate(-452.73 -1244.135)" fill="#61c9a9"/></g><g transform="translate(519.883 1278.216)"><path d="M513.919,1308.924a.99.99,0,0,1-.43-.1,24.166,24.166,0,0,1,2.979-44.676.985.985,0,0,1,.617,1.871,22.195,22.195,0,0,0-2.734,41.032.986.986,0,0,1-.432,1.872Z" transform="translate(-499.892 -1264.098)" fill="#61c9a9"/></g><g transform="translate(498.773 1289.723)"><path d="M481.275,1284.663a.986.986,0,0,1-.685-1.693l8.177-7.911a.985.985,0,0,1,1.37,1.416l-8.177,7.91A.984.984,0,0,1,481.275,1284.663Z" transform="translate(-480.291 -1274.783)" fill="#61c9a9"/></g><g transform="translate(498.772 1297.021)"><path d="M491.372,1288.774a1,1,0,0,1-.453-.11l-10.1-5.245a.986.986,0,1,1,.909-1.749l10.1,5.245a.985.985,0,0,1-.455,1.859Z" transform="translate(-480.29 -1281.559)" fill="#61c9a9"/></g><g transform="translate(469.386 1363.929)"><path d="M474.667,1360.211a.971.971,0,0,1-.384-.079c-3.955-1.679-18.5-11.925-21.033-14.815a.985.985,0,0,1,1.482-1.3c2.084,2.379,16.414,12.641,20.321,14.3a.985.985,0,0,1-.386,1.892Z" transform="translate(-453.005 -1343.683)" fill="#61c9a9"/></g><g transform="translate(349.137 1259.615)"><path d="M369.309,1264.838h-.024a.985.985,0,0,1-.962-1.008l0-.343a14.69,14.69,0,0,0-25.277-10.182.985.985,0,0,1-1.419-1.366,16.66,16.66,0,0,1,28.668,11.548l0,.389A.984.984,0,0,1,369.309,1264.838Z" transform="translate(-341.355 -1246.828)" fill="#61c9a9"/></g><g transform="translate(362.121 1232.322)"><path d="M354.394,1235.486a.974.974,0,0,1-.548-.168.985.985,0,0,1-.268-1.367l8.086-12.029a.985.985,0,1,1,1.635,1.1l-8.085,12.029A.985.985,0,0,1,354.394,1235.486Z" transform="translate(-353.411 -1221.486)" fill="#61c9a9"/></g><g transform="translate(370.452 1232.116)"><path d="M369.094,1232.929a.987.987,0,0,1-.8-.408l-6.963-9.665a.985.985,0,0,1,1.6-1.153l6.964,9.664a.985.985,0,0,1-.8,1.562Z" transform="translate(-361.146 -1221.295)" fill="#61c9a9"/></g><g transform="translate(308.539 1178.983)"><path d="M304.647,1188.322a.985.985,0,0,1-.53-1.816l22.595-14.39a.985.985,0,1,1,1.059,1.662l-22.6,14.391A.986.986,0,0,1,304.647,1188.322Z" transform="translate(-303.66 -1171.962)" fill="#61c9a9"/></g><g transform="translate(415.286 1394.33)"><path d="M408.12,1494.443a.985.985,0,0,1-.974-.842c-1.5-10.245-6.848-91.985-3.016-120.835a.985.985,0,0,1,1.953.26c-3.72,28.011,1.56,110.4,3.012,120.289a.986.986,0,0,1-.831,1.118A.947.947,0,0,1,408.12,1494.443Z" transform="translate(-402.774 -1371.91)" fill="#8d8d8d"/></g><g transform="translate(474.124 1520.663)"><path d="M459.542,1507.412a.985.985,0,0,1-.364-1.9l13.372-5.331-14.682-9.15a.985.985,0,1,1,1.043-1.671l16.334,10.18a.985.985,0,0,1-.157,1.751l-15.18,6.052A.967.967,0,0,1,459.542,1507.412Z" transform="translate(-457.404 -1489.21)" fill="#8d8d8d"/></g><g transform="translate(398.416 1526.257)"><path d="M388.094,1509.858a.985.985,0,0,1-.143-1.96l14.077-2.082-9.081-9.755a.985.985,0,1,1,1.442-1.343l10.358,11.128a.985.985,0,0,1-.576,1.646l-15.93,2.357A1.135,1.135,0,0,1,388.094,1509.858Z" transform="translate(-387.11 -1494.404)" fill="#8d8d8d"/></g><g transform="translate(384.196 1357.555)"><path d="M436.291,1341.986c-27.353,0-57.443-1.7-61.533-2.26a.984.984,0,1,1,.267-1.95c5.186.712,52.451,3.256,82.526,1.8a.986.986,0,0,1,.1,1.969C451.134,1341.857,443.816,1341.986,436.291,1341.986Z" transform="translate(-373.906 -1337.764)" fill="#8d8d8d"/></g><g transform="translate(332.293 1657.957)"><path d="M326.7,1620.17a.985.985,0,0,1-.027-1.97l53.628-1.513a.986.986,0,0,1,.055,1.971l-53.627,1.512Z" transform="translate(-325.715 -1616.687)" fill="#8d8d8d"/></g><g transform="translate(436.894 1661.706)"><path d="M423.82,1623.625a.985.985,0,0,1-.027-1.97l52.274-1.487a1,1,0,0,1,1.013.957.987.987,0,0,1-.957,1.014l-52.274,1.486Z" transform="translate(-422.837 -1620.168)" fill="#8d8d8d"/></g><g transform="translate(457.572 1395.156)"><path d="M464.863,1396.7a.979.979,0,0,1-.7-.291l-21.843-22.05a.985.985,0,0,1,1.4-1.388l21.842,22.051a.984.984,0,0,1-.7,1.678Z" transform="translate(-442.036 -1372.677)" fill="#8d8d8d"/></g><g transform="translate(444.35 1381.811)"><path d="M434.826,1366.375a.975.975,0,0,1-.7-.292l-4.082-4.12a.985.985,0,0,1,1.4-1.387l4.082,4.12a.985.985,0,0,1-.7,1.679Z" transform="translate(-429.76 -1360.286)" fill="#8d8d8d"/></g><g transform="translate(439.239 1359.778)"><path d="M441.256,1663.406a.985.985,0,0,1-.983-.938l-15.258-321.6a.986.986,0,0,1,.937-1.032.973.973,0,0,1,1.032.937l15.258,321.606a.987.987,0,0,1-.937,1.031Z" transform="translate(-425.014 -1339.828)" fill="#8d8d8d"/></g><g transform="translate(363.455 1461.017)"><path d="M355.634,1653.675a.959.959,0,0,1-.233-.028.985.985,0,0,1-.725-1.189l52.7-217.875a.985.985,0,0,1,1.915.463l-52.7,217.875A.984.984,0,0,1,355.634,1653.675Z" transform="translate(-354.649 -1433.828)" fill="#8d8d8d"/></g><g transform="translate(428.188 1128.185)"><path d="M414.753,1128.306c0-1.939.814-3.511,1.819-3.511s1.819,1.573,1.819,3.511-.814,3.511-1.819,3.511S414.753,1130.245,414.753,1128.306Z" transform="translate(-414.753 -1124.795)" fill="#b5545c" fill-rule="evenodd"/></g><g transform="translate(407.366 1128.185)"><path d="M395.42,1128.306c0-1.939.814-3.511,1.819-3.511s1.82,1.573,1.82,3.511-.815,3.511-1.82,3.511S395.42,1130.245,395.42,1128.306Z" transform="translate(-395.42 -1124.795)" fill="#b5545c" fill-rule="evenodd"/></g><g transform="translate(414.401 1131.365)"><path d="M402.936,1141.265a.985.985,0,0,1-.782-1.583c1.762-2.307,2.472-8.053,2.167-10.841a.985.985,0,1,1,1.958-.214c.288,2.631-.179,9.136-2.559,12.252A.987.987,0,0,1,402.936,1141.265Z" transform="translate(-401.952 -1127.748)" fill="#b5545c"/></g><g transform="translate(424.433 1148.352)"><path d="M413.773,1150.943a5.326,5.326,0,0,1-1.863-.334.985.985,0,1,1,.685-1.847,3.374,3.374,0,0,0,4.549-3.159,3.405,3.405,0,0,0-.108-.848.985.985,0,1,1,1.906-.494,5.341,5.341,0,0,1-5.17,6.683Z" transform="translate(-411.267 -1143.52)" fill="#b5545c"/></g><g transform="translate(429.056 1166.575)"><path d="M421.069,1164.828a29.692,29.692,0,0,1-4.68-.37.985.985,0,0,1,.31-1.945,27.842,27.842,0,0,0,4.369.346,27.03,27.03,0,0,0,10.961-2.334.985.985,0,0,1,.795,1.8A29,29,0,0,1,421.069,1164.828Z" transform="translate(-415.559 -1160.44)" fill="#b5545c"/></g><g transform="translate(448.142 1117.625)"><path d="M443.424,1135.493a10.294,10.294,0,0,1-2.894-.414.985.985,0,1,1,.554-1.891,8.282,8.282,0,1,0-5.845-9.213.985.985,0,0,1-1.947-.3,10.252,10.252,0,1,1,10.133,11.818Z" transform="translate(-433.28 -1114.991)" fill="#b5545c"/></g><g transform="translate(496.043 1347.675)"><path d="M478.74,1360.142a.984.984,0,0,1-.808-1.547l20.54-29.581a.985.985,0,0,1,1.618,1.124l-20.54,29.58A.984.984,0,0,1,478.74,1360.142Z" transform="translate(-477.756 -1328.591)" fill="#61c9a9"/></g><g transform="translate(399.735 1693.032)"><path d="M449.593,1649.5l29.158-.246-.285,41.611-90.131-.571c.344-8.561,16.924-23.772,37.136-26.786S449.593,1652.219,449.593,1649.5Z" transform="translate(-388.335 -1649.254)" fill="#1f08a6" fill-rule="evenodd"/></g><g transform="translate(290.179 1693.869)"><path d="M347.868,1650.278l29.156-.247-.284,41.612-90.128-.572c.344-8.561,16.924-23.771,37.135-26.785S347.868,1653,347.868,1650.278Z" transform="translate(-286.612 -1650.031)" fill="#1f08a6" fill-rule="evenodd"/></g><g transform="translate(289.57 1684.411)"><g transform="translate(125.491 29.603)"><path d="M413.015,1681.554a.988.988,0,0,1-.844-.475,49.906,49.906,0,0,0-9.221-10.576.985.985,0,0,1,1.2-1.562,51.493,51.493,0,0,1,9.706,11.118.985.985,0,0,1-.841,1.495Z" transform="translate(-402.565 -1668.735)" fill="#3542e4"/></g><g transform="translate(139.187 24.185)"><path d="M425.73,1676.522a.982.982,0,0,1-.843-.475,49.85,49.85,0,0,0-9.22-10.576.985.985,0,1,1,1.2-1.562,51.5,51.5,0,0,1,9.7,11.118.985.985,0,0,1-.842,1.495Z" transform="translate(-415.282 -1663.705)" fill="#3542e4"/></g><g transform="translate(138.94)"><path d="M423.754,1666.548h-.085a.98.98,0,0,1-.723-.315c-6.272-6.771-10.99-16.155-5.421-22.185,2.895-3.132,7.731-3.724,10.779-1.322,1.83,1.443,6.969,7.394-3.731,23.384A.981.981,0,0,1,423.754,1666.548Zm.1-23.344a6.726,6.726,0,0,0-4.877,2.18c-2.957,3.2-3.22,9.738,4.62,18.628,7.064-10.976,6.48-17.381,3.491-19.738A5.185,5.185,0,0,0,423.851,1643.2Z" transform="translate(-415.052 -1641.249)" fill="#3542e4"/></g><g transform="translate(146.756 12.695)"><path d="M440.488,1670.755c-4.048,0-9.72-1.282-17.613-5.165a1.095,1.095,0,0,1-.332-1.621c10.22-12.073,19.192-12.563,24.178-9,3.918,2.8,5.257,7.887,3.049,11.581C448.973,1667.886,446.544,1670.754,440.488,1670.755Zm-15.663-6.411c13.747,6.506,21.02,4.929,23.254,1.2,1.658-2.773.534-6.795-2.5-8.967C441.42,1653.6,433.837,1654.155,424.825,1664.344Z" transform="translate(-422.31 -1653.036)" fill="#3542e4"/></g><g transform="translate(165.906 14.817)"><path d="M474.716,1657.017h0l-33.643-.04a.985.985,0,0,1,0-1.97h0l33.641.04a.985.985,0,0,1,0,1.97Z" transform="translate(-440.09 -1655.007)" fill="#3542e4"/></g><g transform="translate(109.558 48.676)"><path d="M478.51,1688.868H478.5l-89.754-.453a.985.985,0,0,1,.005-1.97h0l89.754.453a.985.985,0,0,1,0,1.97Z" transform="translate(-387.771 -1686.445)" fill="#3542e4"/></g><g transform="translate(15.933 30.441)"><path d="M311.291,1682.33a.987.987,0,0,1-.844-.475,49.879,49.879,0,0,0-9.221-10.575.985.985,0,1,1,1.2-1.562,51.465,51.465,0,0,1,9.706,11.117.985.985,0,0,1-.841,1.495Z" transform="translate(-300.841 -1669.514)" fill="#3542e4"/></g><g transform="translate(29.63 25.023)"><path d="M324.007,1677.3a.984.984,0,0,1-.844-.476,49.673,49.673,0,0,0-9.219-10.574.985.985,0,0,1,1.2-1.562,51.274,51.274,0,0,1,9.706,11.118.985.985,0,0,1-.842,1.494Z" transform="translate(-313.558 -1664.483)" fill="#3542e4"/></g><g transform="translate(29.383 0.833)"><path d="M322.03,1667.317c-.027,0-.055,0-.085,0a.979.979,0,0,1-.723-.316c-6.271-6.768-10.989-16.149-5.421-22.179,2.895-3.135,7.73-3.727,10.781-1.321,1.829,1.443,6.967,7.391-3.733,23.379A.983.983,0,0,1,322.03,1667.317Zm.1-23.338a6.725,6.725,0,0,0-4.877,2.18c-2.956,3.2-3.218,9.735,4.621,18.623,7.064-10.974,6.48-17.376,3.491-19.734A5.176,5.176,0,0,0,322.126,1643.979Z" transform="translate(-313.329 -1642.022)" fill="#3542e4"/></g><g transform="translate(37.199 13.533)"><path d="M338.764,1671.532c-4.05,0-9.721-1.282-17.615-5.165a1.095,1.095,0,0,1-.331-1.62c10.22-12.071,19.19-12.563,24.18-9,3.917,2.8,5.256,7.888,3.047,11.58C347.25,1668.663,344.82,1671.532,338.764,1671.532Zm-15.663-6.411c13.747,6.506,21.021,4.931,23.255,1.2,1.658-2.771.534-6.794-2.5-8.966C339.7,1654.382,332.113,1654.936,323.1,1665.121Z" transform="translate(-320.586 -1653.815)" fill="#3542e4"/></g><g transform="translate(56.348 15.645)"><path d="M372.989,1657.794h0l-33.637-.048a.985.985,0,0,1,0-1.971h0l33.637.05a.985.985,0,0,1,0,1.97Z" transform="translate(-338.366 -1655.775)" fill="#3542e4"/></g><g transform="translate(0 49.513)"><path d="M376.784,1689.645h-.005l-89.752-.453a.985.985,0,0,1,.005-1.97h0l89.752.453a.985.985,0,0,1,0,1.97Z" transform="translate(-286.047 -1687.222)" fill="#3542e4"/></g></g><g transform="translate(294.396 1140.751)"><path d="M291.98,1156.318c-1.314-3.129-.742-15,6.462-18.939" transform="translate(-290.459 -1136.393)" fill="#f77f89" fill-rule="evenodd"/><path d="M292.049,1157.374a.986.986,0,0,1-.908-.6c-1.352-3.217-1.034-15.846,6.9-20.185a.985.985,0,1,1,.947,1.727c-6.524,3.57-7.253,14.776-6.027,17.694a.987.987,0,0,1-.908,1.367Z" transform="translate(-290.528 -1136.463)" fill="#b5545c"/></g><g transform="translate(304.456 1148.343)"><path d="M300.952,1159.57c-.807-3.973,1.3-12.226,5.585-15.143" transform="translate(-299.798 -1143.442)" fill="#f77f89" fill-rule="evenodd"/><path d="M301.021,1160.625a.985.985,0,0,1-.964-.789c-.867-4.27,1.269-12.933,6-16.153a.984.984,0,1,1,1.108,1.627c-3.9,2.657-5.922,10.452-5.175,14.132a.984.984,0,0,1-.769,1.161A.94.94,0,0,1,301.021,1160.625Z" transform="translate(-299.869 -1143.512)" fill="#b5545c"/></g><g transform="translate(443.311 1186.02)"><path d="M429.781,1200.951a.985.985,0,0,1-.593-1.772c6.244-4.7,13.288-13.692,15.7-20.047a.984.984,0,1,1,1.841.7c-2.522,6.651-9.861,16.038-16.357,20.923A.974.974,0,0,1,429.781,1200.951Z" transform="translate(-428.795 -1178.495)" fill="#61c9a9"/></g><g transform="translate(401.19 1322.993)"><path d="M419.375,1310.3a140.349,140.349,0,0,1-28.913-2.678.985.985,0,0,1,.418-1.926c20.162,4.364,44.352,2.169,51.286,1.392a.986.986,0,0,1,.22,1.959A214.9,214.9,0,0,1,419.375,1310.3Z" transform="translate(-389.685 -1305.674)" fill="#1f08a6"/></g></g></g></svg>