<svg xmlns="http://www.w3.org/2000/svg" width="349.581" height="621.321" viewBox="0 0 349.581 621.321"><g transform="translate(-166.291 -300.075)"><g transform="translate(-490.215 -758)"><path d="M969.866,1260.068H917.875a2.774,2.774,0,0,1-2.771-2.772V1231.68a2.774,2.774,0,0,1,2.771-2.772h51.991a2.774,2.774,0,0,1,2.771,2.772V1257.3A2.774,2.774,0,0,1,969.866,1260.068Zm-51.991-29.331a.944.944,0,0,0-.942.943V1257.3a.944.944,0,0,0,.942.943h51.991a.944.944,0,0,0,.942-.943V1231.68a.944.944,0,0,0-.942-.943Z" fill="#bfbfbf"/><path d="M942.014,1230.737H890.023a2.774,2.774,0,0,1-2.77-2.77v-25.618a2.774,2.774,0,0,1,2.77-2.77h51.991a2.774,2.774,0,0,1,2.771,2.77v25.618A2.774,2.774,0,0,1,942.014,1230.737Zm-51.991-29.329a.942.942,0,0,0-.941.941v25.618a.942.942,0,0,0,.941.941h51.991a.943.943,0,0,0,.942-.941v-25.618a.943.943,0,0,0-.942-.941Z" fill="#bfbfbf"/><path d="M914.163,1260.068H862.171a2.773,2.773,0,0,1-2.77-2.772V1231.68a2.773,2.773,0,0,1,2.77-2.772h51.992a2.774,2.774,0,0,1,2.77,2.772V1257.3A2.774,2.774,0,0,1,914.163,1260.068Zm-51.992-29.331a.943.943,0,0,0-.941.943V1257.3a.943.943,0,0,0,.941.943h51.992a.943.943,0,0,0,.941-.943V1231.68a.943.943,0,0,0-.941-.943Z" fill="#bfbfbf"/><path d="M996.836,1289.4H944.845a2.774,2.774,0,0,1-2.77-2.77v-25.618a2.774,2.774,0,0,1,2.77-2.77h51.991a2.775,2.775,0,0,1,2.772,2.77v25.618A2.775,2.775,0,0,1,996.836,1289.4Zm-51.991-29.329a.942.942,0,0,0-.941.941v25.618a.942.942,0,0,0,.941.941h51.991a.942.942,0,0,0,.942-.941v-25.618a.942.942,0,0,0-.942-.941Z" fill="#bfbfbf"/><path d="M700.48,1576.143l-11.639,16.238L712.76,1622.3l10.992-19.172Z" fill="#f77f89" fill-rule="evenodd"/><path d="M687.817,1585l-27.457,31.7,43.108,50.342s28.609-.319,37.653-.319c-.186-11.006-8.159-33.715-30.374-32.831,4.485-7.87,7.667-14.351,7.667-14.351Z" fill="#61c9a9" fill-rule="evenodd"/><path d="M670.067,1650.144a31.206,31.206,0,0,1-13.038-2.825.914.914,0,1,1,.784-1.652c7.883,3.741,20.013,3.827,25.507-2.005,8.687-9.222,14.674-14.671,27.7-10.645a.915.915,0,0,1-.539,1.748c-12.015-3.712-17.378,1.184-25.825,10.151C681.208,1648.573,675.715,1650.144,670.067,1650.144Z" fill="#1f08a6"/><path d="M694.935,1679.4a.916.916,0,0,1-.22-.027,84.641,84.641,0,0,1-12.809-4.333.915.915,0,0,1,.792-1.649,82.406,82.406,0,0,0,11.987,4.087c11.217-10.315,17.285-33.5,15.3-43.409a.915.915,0,0,1,1.794-.359c2.085,10.418-4.361,34.929-16.239,45.459A.918.918,0,0,1,694.935,1679.4Z" fill="#1f08a6"/><path d="M671.558,1630.745a.914.914,0,0,1-.3-1.779,17.653,17.653,0,0,0,4.921-30.759.915.915,0,0,1,1.106-1.458,19.482,19.482,0,0,1-5.432,33.946A.913.913,0,0,1,671.558,1630.745Z" fill="#1f08a6"/><path d="M707.595,1658.407a.917.917,0,0,1-.675-.3l-42.429-46.34a.915.915,0,0,1,1.349-1.237l42.135,46.02,31-1.848a.915.915,0,1,1,.109,1.826l-31.436,1.873Z" fill="#1f08a6"/><g transform="translate(-193 293)"><path d="M969.866,1260.068H917.875a2.774,2.774,0,0,1-2.771-2.772V1231.68a2.774,2.774,0,0,1,2.771-2.772h51.991a2.774,2.774,0,0,1,2.771,2.772V1257.3A2.774,2.774,0,0,1,969.866,1260.068Zm-51.991-29.331a.944.944,0,0,0-.942.943V1257.3a.944.944,0,0,0,.942.943h51.991a.944.944,0,0,0,.942-.943V1231.68a.944.944,0,0,0-.942-.943Z" fill="#bfbfbf"/><path d="M942.014,1230.737H890.023a2.774,2.774,0,0,1-2.77-2.77v-25.618a2.774,2.774,0,0,1,2.77-2.77h51.991a2.774,2.774,0,0,1,2.771,2.77v25.618A2.774,2.774,0,0,1,942.014,1230.737Zm-51.991-29.329a.942.942,0,0,0-.941.941v25.618a.942.942,0,0,0,.941.941h51.991a.943.943,0,0,0,.942-.941v-25.618a.943.943,0,0,0-.942-.941Z" fill="#bfbfbf"/><path d="M914.163,1260.068H862.171a2.773,2.773,0,0,1-2.77-2.772V1231.68a2.773,2.773,0,0,1,2.77-2.772h51.992a2.774,2.774,0,0,1,2.77,2.772V1257.3A2.774,2.774,0,0,1,914.163,1260.068Zm-51.992-29.331a.943.943,0,0,0-.941.943V1257.3a.943.943,0,0,0,.941.943h51.992a.943.943,0,0,0,.941-.943V1231.68a.943.943,0,0,0-.941-.943Z" fill="#bfbfbf"/><path d="M996.836,1289.4H944.845a2.774,2.774,0,0,1-2.77-2.77v-25.618a2.774,2.774,0,0,1,2.77-2.77h51.991a2.775,2.775,0,0,1,2.772,2.77v25.618A2.775,2.775,0,0,1,996.836,1289.4Zm-51.991-29.329a.942.942,0,0,0-.941.941v25.618a.942.942,0,0,0,.941.941h51.991a.942.942,0,0,0,.942-.941v-25.618a.942.942,0,0,0-.942-.941Z" fill="#bfbfbf"/></g><path d="M768.889,1442,696.33,1574.961l27.783,32.518L855.219,1472.2l-28.776-40.668Z" fill="#fcba15" fill-rule="evenodd"/><path d="M739.193,1592.834a.911.911,0,0,1-.683-.306l-32.359-36.2a.914.914,0,1,1,1.364-1.218l32.359,36.205a.915.915,0,0,1-.681,1.524Z" fill="#b98b0f"/><path d="M826.434,1431.545l-57.54,10.462-29.3,53.681,50.25-1.2,16.408,28.212,48.964-50.507Z" fill="#b98b0f" fill-rule="evenodd"/><path d="M708.608,1590.247a.915.915,0,0,1-.695-1.509c29.388-34.423,119.806-139.888,120.716-140.949a.915.915,0,0,1,1.389,1.19c-.91,1.062-91.328,106.525-120.713,140.947A.914.914,0,0,1,708.608,1590.247Z" fill="#b98b0f"/><path d="M906.2,1619.78l8.758,18.292,39.276-7.108-6.528-22.035Z" fill="#f77f89" fill-rule="evenodd"/><path d="M909.138,1638.139l13.42,38.436s77.625-15.568,83.529-17.071c-10.945-25.8-33.5-21.473-43.375-19a142.769,142.769,0,0,1-6.628-14.48Z" fill="#61c9a9" fill-rule="evenodd"/><path d="M965.532,1643.721a4.278,4.278,0,0,1-1.261-.188c-3.5-1.077-4.859-6.417-3.094-12.157h0c1.766-5.74,5.892-9.394,9.392-8.317s4.858,6.417,3.093,12.158a15.092,15.092,0,0,1-3.859,6.536A6.4,6.4,0,0,1,965.532,1643.721Zm-2.606-11.808c-1.415,4.6-.553,9.121,1.882,9.871,1.108.344,2.438-.146,3.746-1.368a13.242,13.242,0,0,0,3.359-5.737c1.415-4.6.553-9.123-1.882-9.871s-5.689,2.505-7.106,7.1Z" fill="#1f08a6"/><path d="M974.786,1645.556c-.076,0-.152,0-.227,0a4.851,4.851,0,0,1-3.652-1.639c-2.545-2.982-1.01-8.938,3.495-13.559h0c2.872-2.946,6.271-4.66,9.148-4.554a4.847,4.847,0,0,1,3.65,1.639c2.545,2.983,1.009,8.938-3.495,13.559C980.909,1643.866,977.594,1645.556,974.786,1645.556Zm.926-13.925c-3.723,3.819-5.286,8.9-3.414,11.094a3.034,3.034,0,0,0,2.321,1c2.322.067,5.294-1.458,7.776-4,3.723-3.818,5.286-8.9,3.414-11.093a3.035,3.035,0,0,0-2.32-1c-2.3-.087-5.3,1.456-7.778,4Z" fill="#1f08a6"/><path d="M939.25,1329.358c4.861,3.934,9.91,8.619,16.4,11.069,9.694,2.35,27.473,21.8,27.473,25.991,0,3.967-3.545,5.308-5.745,5.448-1.9.121-5.959-4.276-6.982-5.531,1.766,4.022,2.792,9.476.83,11.187s-4.768,2.305-6.688.089c-3.163-3.651-2.382-7.807-2.675-10.241-1.558-2.977-5.789-9.592-7.58-10.389-1.259.058-3.144.5-3.5,2.5s4.3,6.478,4.828,8.346c-.04,2.366-2.589,5.372-4.823,4.781-2.548-.675-10.409-8.312-12.151-10.4-2.339-2.8-3.4-8.928-4.651-11s-6.121-6.386-7.028-7.286S934.389,1325.424,939.25,1329.358Z" fill="#f77f89" fill-rule="evenodd"/><path d="M890.68,1233.479c17.478,14.842,43.637,73.309,60.452,87.7-1.756,9.029-29.616,42.654-49.292,34.639C877.179,1345.77,877.481,1222.272,890.68,1233.479Z" fill="#1f08a6" fill-rule="evenodd"/><path d="M904.257,1316.811,956.084,1611.1l-54.29,12.815-71.3-187.1L848.2,1306.788Z" fill="#fcba15" fill-rule="evenodd"/><path d="M858.5,1511.208a.916.916,0,0,1-.855-.589l-25.494-66.9a.915.915,0,1,1,1.71-.652l25.494,66.9a.915.915,0,0,1-.855,1.241Z" fill="#b98b0f"/><path d="M925.4,1619.254a.913.913,0,0,1-.871-.637l-83.754-263.395a.915.915,0,0,1,1.744-.553l83.753,263.394a.914.914,0,0,1-.594,1.148A.9.9,0,0,1,925.4,1619.254Z" fill="#b98b0f"/><path d="M854.426,1352.526a48.454,48.454,0,0,1-4.982-.225.914.914,0,1,1,.191-1.818c14.5,1.508,52.07-5.579,58.867-8.413a.915.915,0,0,1,.7,1.688C902.8,1346.43,871.538,1352.526,854.426,1352.526Z" fill="#b98b0f"/><path d="M751.586,1272.689l98.34,10.436c5.861.622,10.078,6.151,9.421,12.348L843.381,1445.9c-.658,6.2-5.941,10.717-11.8,10.095l-98.341-10.438c-5.86-.622-10.077-6.149-9.42-12.346l15.965-150.427C740.442,1276.586,745.726,1272.067,751.586,1272.689Z" fill="#ff3274" fill-rule="evenodd"/><path d="M792.293,1402.732a38.392,38.392,0,1,1,38.391-38.39A38.434,38.434,0,0,1,792.293,1402.732Zm0-74.954a36.563,36.563,0,1,0,36.562,36.564A36.6,36.6,0,0,0,792.293,1327.778Z" fill="#1f08a6"/><rect width="38.417" height="29.27" rx="8.386" transform="translate(798.297 1392.226) rotate(13.629)" fill="#9ce2cb"/><path d="M789.9,1104.624c0-9.339,5.264-16.91,11.758-16.91s11.757,7.571,11.757,16.91-5.264,16.91-11.757,16.91S789.9,1113.963,789.9,1104.624Z" fill="#f77f89" fill-rule="evenodd"/><path d="M796.526,1113.5a37.562,37.562,0,1,1,37.562,37.562A37.562,37.562,0,0,1,796.526,1113.5Z" fill="#f77f89" fill-rule="evenodd"/><path d="M783.815,1353.215c-1.749,5.831-7.413,17.944-2.019,39.637-10.214,15.774-5.449,26.895,17.931,29.677,3.933-4.8,7.881-7.948,12.27-14.875,1.422-6.24,1.3-15.823,1.422-18.416.25-5.248-7.443-26.026-5.527-35.357S785.564,1347.383,783.815,1353.215Z" fill="#f77f89" fill-rule="evenodd"/><path d="M830.425,1163.671c-54.036,0-74.607,113.556-68.706,186.219,11.2,7.069,55.918,9.825,68.706,6.462,2.721-12.754,3.663-66.16,4.277-74.842,29.842,2.927,24.712,7.542,21.087,47.485,15.6.542,36.5-3.635,52.185-10.226C910.122,1291.389,894.029,1163.671,830.425,1163.671Z" fill="#1f08a6" fill-rule="evenodd"/><path d="M842.825,1293.807c-.108,0-.216-.006-.326-.017a3.1,3.1,0,0,1-2.758-3.4l7.335-70.2a37.441,37.441,0,0,0-33.308-41.083l-7.656-.8a37.443,37.443,0,0,0-41.083,33.31L757.9,1279.9a3.1,3.1,0,1,1-6.159-.643l7.134-68.282a43.593,43.593,0,0,1,47.886-38.826l7.655.8a43.64,43.64,0,0,1,38.824,47.885l-7.335,70.2A3.1,3.1,0,0,1,842.825,1293.807Z" fill="#3542e4"/><path d="M808.317,1135.476c2.82,12.1,3.525,29.138,3.055,35.835,7.168,4.23,25.731,7.167,34.661-4.817-4.23-10.222-5.17-15.157-4.817-21.031S805.5,1123.374,808.317,1135.476Z" fill="#f77f89" fill-rule="evenodd"/><path d="M820.294,1148.447c-.795-6.493,3.872-21.776,6.547-23.9,25.11.917,40.693-16.97,43.227-21.862a29.637,29.637,0,0,1,5.024,10.422c.646,2.491.077,4.238-4.175,7.8C869.838,1135.578,856.532,1158.852,820.294,1148.447Z" fill="#fff" fill-rule="evenodd"/><path d="M828.818,1127.484a1.4,1.4,0,0,1-.884-.316c-6.26-5.134-23.638-18.614-28.8-19.321a1.394,1.394,0,1,1,.379-2.763c6.877.941,27.825,17.986,30.191,19.927a1.395,1.395,0,0,1-.886,2.473Z" fill="#fff"/><path d="M847.481,1106.489c0-3.256,1.061-5.9,2.369-5.9s2.37,2.64,2.37,5.9-1.061,5.9-2.37,5.9S847.481,1109.745,847.481,1106.489Z" fill="#cb5d66" fill-rule="evenodd"/><path d="M823.931,1337.314c-16.905,0-50.481-2.293-63.512-7.653a.915.915,0,0,1,.7-1.692c15.457,6.358,62.791,8.388,71.192,7.17a.914.914,0,1,1,.263,1.81A71.275,71.275,0,0,1,823.931,1337.314Z" fill="#3542e4"/><path d="M834.7,1282.425a.915.915,0,0,1-.914-.884c-.135-3.941.538-9.829,1.318-16.647,2.922-25.548,7.337-64.157-17.476-82.576a.914.914,0,1,1,1.09-1.468c25.661,19.046,20.992,59.864,18.2,84.252-.771,6.745-1.437,12.571-1.307,16.377a.914.914,0,0,1-.883.945Z" fill="#3542e4"/><path d="M818.175,1289.4a.915.915,0,0,1-.36-1.756l16.536-7.073a.915.915,0,1,1,.719,1.682l-16.536,7.073A.912.912,0,0,1,818.175,1289.4Z" fill="#3542e4"/><path d="M834.757,1281.861l-.065,0-15.857-1.114a.915.915,0,1,1,.129-1.825l15.857,1.114a.915.915,0,0,1-.064,1.827Z" fill="#3542e4"/><path d="M834.77,1281.745a.909.909,0,0,1-.611-.234l-13.516-12.153a.915.915,0,0,1,1.223-1.361l13.516,12.153a.915.915,0,0,1-.612,1.595Z" fill="#3542e4"/><path d="M907.975,1319.684l-.072,0a.915.915,0,0,1-.841-.984c.935-11.908-1.567-42.76-10.057-74.069a.915.915,0,1,1,1.766-.479c8.547,31.52,11.06,62.652,10.115,74.691A.915.915,0,0,1,907.975,1319.684Z" fill="#3542e4"/><path d="M907.69,1337.217a.915.915,0,0,1-.369-1.752c6.529-2.877,23.536-16.877,30.587-29.252a.915.915,0,1,1,1.589.906c-7.508,13.179-24.866,27.124-31.439,30.02A.909.909,0,0,1,907.69,1337.217Z" fill="#3542e4"/><path d="M887.826,1348.777a.915.915,0,0,1-.9-.765c-.762-4.577-3.505-21.644-3.532-21.817a.914.914,0,0,1,1.806-.289c.028.171,2.769,17.233,3.53,21.806a.913.913,0,0,1-.752,1.052A.864.864,0,0,1,887.826,1348.777Z" fill="#b98b0f"/><path d="M893.5,1603.073a.915.915,0,0,1-.142-1.818l59.358-9.362A.914.914,0,1,1,953,1593.7l-59.358,9.362A.782.782,0,0,1,893.5,1603.073Z" fill="#b98b0f"/><path d="M932.678,1496.662a29.567,29.567,0,0,1-7.039-58.283.915.915,0,0,1,.435,1.778,27.738,27.738,0,0,0,6.6,54.676,28.517,28.517,0,0,0,3.067-.168.914.914,0,1,1,.2,1.818A30.123,30.123,0,0,1,932.678,1496.662Z" fill="#b98b0f"/><path d="M920,1670.18a.915.915,0,0,1-.169-1.813l83.025-15.747a.915.915,0,1,1,.341,1.8l-83.025,15.747A.91.91,0,0,1,920,1670.18Z" fill="#1f08a6"/><path d="M938.084,1674.188a.952.952,0,0,1-.235-.03.916.916,0,0,1-.65-1.119,17.658,17.658,0,0,0-23.5-20.969.915.915,0,0,1-.669-1.7,19.492,19.492,0,0,1,25.941,23.141A.915.915,0,0,1,938.084,1674.188Z" fill="#1f08a6"/><path d="M820.683,1148.466a1.392,1.392,0,0,1-.492-.09l-.264-.1c-9.841-3.683-16.875-9.669-20.907-17.792a1.395,1.395,0,1,1,2.5-1.24c3.707,7.468,10.229,12.992,19.385,16.419l.271.1a1.395,1.395,0,0,1-.492,2.7Z" fill="#fff"/><path d="M789.227,1120.649a12.1,12.1,0,1,1,12.1,12.095A12.1,12.1,0,0,1,789.227,1120.649Z" fill="#f77f89" fill-rule="evenodd"/><path d="M801.324,1133.659a.915.915,0,1,1,0-1.829,11.12,11.12,0,0,0,10.7-7.912.915.915,0,0,1,1.75.534A12.94,12.94,0,0,1,801.324,1133.659Z" fill="#cb5d66"/><path d="M791.778,1114.13a.914.914,0,0,1-.72-1.477,13.026,13.026,0,0,1,7.535-4.729.915.915,0,0,1,.381,1.79,11.188,11.188,0,0,0-6.474,4.064A.913.913,0,0,1,791.778,1114.13Z" fill="#cb5d66"/><path d="M820.618,1060.024a40.469,40.469,0,0,0-30.348,48.528l78.876-18.18A40.469,40.469,0,0,0,820.618,1060.024Z" fill="#fcba15" fill-rule="evenodd"/><path d="M839.14,1084.524l56.994-13.135c4.726-1.089,9.183.741,9.954,4.088h0c.772,3.347-2.435,6.942-7.162,8.032l-56.992,13.135c-4.727,1.09-9.185-.74-9.956-4.087h0C831.206,1089.21,834.413,1085.613,839.14,1084.524Z" fill="#fcba15" fill-rule="evenodd"/><path d="M780.128,1416.09a.914.914,0,0,1-.683-1.523,54.016,54.016,0,0,0,6.413-8.235.915.915,0,1,1,1.583.917,55.564,55.564,0,0,1-6.629,8.535A.917.917,0,0,1,780.128,1416.09Z" fill="#cb5d66"/><path d="M790.229,1421.575a.914.914,0,0,1-.635-1.572c3.564-3.445,9.1-11.027,12.2-16.076a.915.915,0,0,1,1.561.954c-2.719,4.443-8.39,12.479-12.485,16.436A.912.912,0,0,1,790.229,1421.575Z" fill="#cb5d66"/><path d="M970.69,1367.6a.913.913,0,0,1-.636-.257c-.334-.323-.7-.683-1.093-1.072-4.148-4.094-11.867-11.714-16.524-7.85a.915.915,0,0,1-1.168-1.408c5.929-4.924,14.418,3.455,18.978,7.957.388.384.749.74,1.079,1.058a.915.915,0,0,1-.636,1.572Z" fill="#cb5d66"/><path d="M801.324,1126.921a6.125,6.125,0,1,1,3.14-11.384.914.914,0,1,1-.938,1.57,4.3,4.3,0,1,0-.476,7.624.914.914,0,1,1,.738,1.673A6.072,6.072,0,0,1,801.324,1126.921Z" fill="#cb5d66"/><path d="M789.43,1096.316c-.031,0-.062,0-.093-.005a.914.914,0,0,1-.818-1,41.42,41.42,0,0,1,51.578-35.919.915.915,0,0,1-.461,1.771,39.588,39.588,0,0,0-49.3,34.331A.915.915,0,0,1,789.43,1096.316Z" fill="#b98b0f"/><path d="M841.363,1151.755a.915.915,0,0,1-.088-1.825c21.186-2.074,28.057-19.933,28.73-29.086a.915.915,0,0,1,.324-.634c4.336-3.634,4.358-5.021,3.878-6.872a28.738,28.738,0,0,0-4.873-10.1.915.915,0,1,1,1.468-1.092,30.492,30.492,0,0,1,5.175,10.738c.785,3.025-.232,5.12-4.179,8.484-1.151,13.392-11.074,28.5-30.345,30.388A.888.888,0,0,1,841.363,1151.755Z" fill="#ddd"/></g></g></svg>