<svg xmlns="http://www.w3.org/2000/svg" width="540.189" height="595.232" viewBox="0 0 540.189 595.232">
  <g id="Group_1101" data-name="Group 1101" transform="translate(-1161 -1213)">
    <g id="Group_1100" data-name="Group 1100" transform="translate(-1328.307 -105.384)">
      <g id="Layer_2" data-name="Layer 2">
        <g id="vector">
          <path id="Path_1127" data-name="Path 1127" d="M3004.551,1443.357c32.142,37.987,28.492,105.93,15.339,160.436-13.3,54.644-36.24,96.015-68.382,145.408s-73.459,106.927-128.139,120.227-122.449-17.782-182.059-67.175-111.2-117.372-124.928-198.9c-13.72-81.681,10.226-177.092,69.846-215.079s155.021-18.559,236.7-4.821C2904.456,1397.33,2972.4,1405.37,3004.551,1443.357Z" fill="#f6f7f7"/>
          <path id="Path_1128" data-name="Path 1128" d="M2749.572,1502.867c-1.244,6.083.11,49.631-1.692,56.5s-21.8,90.819-21.8,90.819l31.8-8.79s11.15-24.5,15.193-46.566C2776.638,1575.411,2776.126,1503.2,2749.572,1502.867Z" fill="#f77f89"/>
          <path id="Path_1129" data-name="Path 1129" d="M2718.7,1522.094h-20.635l-11.818-44.82h20.645Z" fill="#9ce2cb"/>
          <rect id="Rectangle_83" data-name="Rectangle 83" width="224.199" height="224.199" transform="translate(2761.738 1646.72)" fill="#ddd"/>
          <circle id="Ellipse_15" data-name="Ellipse 15" cx="22.593" cy="22.593" r="22.593" transform="translate(2780.663 1668.864)" fill="#a4a4a4"/>
          <path id="Path_1130" data-name="Path 1130" d="M2547.692,1857.647l21.083-12.138,13.336,24.422-24.56,12.129Z" fill="#f77f89"/>
          <path id="Path_1131" data-name="Path 1131" d="M2702.375,1845.509l4.7,26.992,28.511-4.848-9.4-30.633Z" fill="#f77f89"/>
          <path id="Path_1132" data-name="Path 1132" d="M2772.933,1630.521c-8.4.457-146.176,30.376-147.968,37.392-14.754,57.552,69.516,178.364,75.708,182.023,6.677-1.61,29.462-9.55,29.462-9.55l-5.232-80.556Z" fill="#464647"/>
          <path id="Path_1133" data-name="Path 1133" d="M2563.763,1885.846l-16.83-35.179-45.8-43.823-11.827,6.513,45.341,86.9Z" fill="#ddd"/>
          <path id="Path_1134" data-name="Path 1134" d="M2737.745,1861.187l-38.4,6.842-54.46,32.444,3.137,13.144,95.841-20.526Z" fill="#ddd"/>
          <path id="Path_1135" data-name="Path 1135" d="M2879.22,1594.83c5.36,4.289,10.976,23.626,11.626,30.184,7.015,76.084-118.214,120.885-135.557,128.4-16.464,13.766-160.07,119.632-168.824,122.138s-23.068-31.1-21.815-35.59,211.732-216.077,211.732-216.077Z" fill="#464647"/>
          <path id="Path_1136" data-name="Path 1136" d="M2778.522,1457.873c-17.717-8.753-34.1,39.259-32.526,44.756s17.836,7.071,21.952,7.071S2778.522,1457.873,2778.522,1457.873Z" fill="#b98b0f"/>
          <path id="Path_1137" data-name="Path 1137" d="M2812.494,1430.332c64.668,0,70.769,154.171,70.037,164.69-6.531,21.44-84.864,47.2-108.976,33.1C2735.294,1538.412,2752.92,1430.332,2812.494,1430.332Z" fill="#fcba15"/>
          <path id="Path_1138" data-name="Path 1138" d="M2877.007,1506.343c3.613,6.165,11.387,46.338,10.61,51.579s-12.806,18.467-17.086,18.76c-60.864,4.135-126.877-20.187-139.216-27.02-25.812-2.058-41.087-11.378-41.087-25.007,0-8.049,4.463-13.849,6.924-13.849,4.665,0,12.952,8.041,13.958,10.391-2.012-4.134-8.324-11.726-3.128-11.726,1.445,0,13.171,16.391,19.537,20.37s98.247,7.318,116.669,14.013c-2.351-4.683-8.937-21.66-9.047-24.111S2877.007,1506.343,2877.007,1506.343Z" fill="#f77f89"/>
          <path id="Path_1139" data-name="Path 1139" d="M2831.089,1442.616c28-10.262,50.134,54.424,49.229,62.62s-45.735,22.547-50.784,19.583S2803.338,1452.788,2831.089,1442.616Z" fill="#b98b0f"/>
          <path id="Path_1140" data-name="Path 1140" d="M2814.323,1402.279c-.3,3.887,2.067,25.611,5.772,32.7-1.638,3.22-18.468,12.577-26.526,10.574-1.1-6.019-4.016-22.182-6.4-27.1C2791.474,1416.2,2814.323,1402.279,2814.323,1402.279Z" fill="#f77f89"/>
          <ellipse id="Ellipse_16" data-name="Ellipse 16" cx="36.716" cy="46.018" rx="36.716" ry="46.018" transform="translate(2734.551 1341.595) rotate(-14.86)" fill="#f77f89"/>
          <path id="Path_1141" data-name="Path 1141" d="M2799.084,1376.055c-2.03.109-9.778-3.842-11.5-15.7-5.589-.915-30.231,1.71-43.146,11.891-4.784,1.829-8.662,3.356-15.9,3.356-3.43,0-6.339-3.585-6.339-6.046,0-6.777,2.909-13.345,11.406-13.784-7.153-.155-13.784-4.573-13.784-7.83,0-4.326,9.833-17.6,26.983-11.781-4.025-2.909-8.571-5.744-8.571-8.5,0-4.711,6.778-9.284,18.633-9.284,18.339,0,38.325,7.6,42.642,13.043,2.013-1.043,4.574-2.982,9.476-2.982,12.221,0,16.318,39.588,11.032,52.86a11.626,11.626,0,0,1-4.309,1.674" fill="#1f08a6"/>
          <path id="Path_1142" data-name="Path 1142" d="M2798.719,1376.924a9.032,9.032,0,1,1,4.573,11.113" fill="#e49d75"/>
        </g>
      </g>
      <g id="Group_1092" data-name="Group 1092">
        <path id="Path_1143" data-name="Path 1143" d="M2823.435,1377.593a13.615,13.615,0,1,0-13.615,13.615A13.614,13.614,0,0,0,2823.435,1377.593Z" fill="#f77f89" fill-rule="evenodd"/>
      </g>
      <g id="Group_1093" data-name="Group 1093">
        <path id="Path_1144" data-name="Path 1144" d="M2762.215,1401.24a1.118,1.118,0,0,0,.889-.439c2.7-3.539,3.23-10.919,2.9-13.9a1.118,1.118,0,0,0-2.223.244c.348,3.162-.456,9.681-2.457,12.3a1.119,1.119,0,0,0,.888,1.8Z" fill="#b5545c"/>
      </g>
      <g id="Group_1094" data-name="Group 1094">
        <path id="Path_1145" data-name="Path 1145" d="M2783.739,1382.926c-1.157-2.649-3.352-4.246-4.905-3.569s-1.873,3.375-.716,6.023,3.352,4.246,4.905,3.569S2784.9,1385.574,2783.739,1382.926Z" fill="#b5545c" fill-rule="evenodd"/>
      </g>
      <g id="Group_1095" data-name="Group 1095">
        <path id="Path_1146" data-name="Path 1146" d="M2757.191,1388.955c-1.157-2.65-3.353-4.247-4.905-3.57s-1.873,3.375-.717,6.024,3.353,4.246,4.905,3.569S2758.348,1391.6,2757.191,1388.955Z" fill="#b5545c" fill-rule="evenodd"/>
      </g>
      <g id="Group_1096" data-name="Group 1096">
        <path id="Path_1147" data-name="Path 1147" d="M2783.867,1409.528a1.125,1.125,0,0,0,.336-.051,12.5,12.5,0,0,0,8.716-10.826,1.117,1.117,0,0,0-1.013-1.213,1.1,1.1,0,0,0-1.214,1.013,10.262,10.262,0,0,1-7.161,8.893,1.118,1.118,0,0,0,.336,2.184Z" fill="#b5545c"/>
      </g>
      <g id="Group_1097" data-name="Group 1097">
        <path id="Path_1148" data-name="Path 1148" d="M2790.012,1421.776a1.2,1.2,0,0,0,.205-.018,36.452,36.452,0,0,0,23.7-15.824,1.118,1.118,0,0,0-1.871-1.225,34.194,34.194,0,0,1-22.233,14.85,1.118,1.118,0,0,0,.2,2.217Z" fill="#b5545c"/>
      </g>
      <g id="Group_1098" data-name="Group 1098">
        <path id="Path_1149" data-name="Path 1149" d="M2809.82,1392.326a14.784,14.784,0,0,0,3.979-.544,1.118,1.118,0,0,0-.6-2.153,12.592,12.592,0,0,1-7.734-.321,1.118,1.118,0,1,0-.781,2.1A14.678,14.678,0,0,0,2809.82,1392.326Z" fill="#b5545c"/>
      </g>
      <g id="Group_1099" data-name="Group 1099">
        <path id="Path_1150" data-name="Path 1150" d="M2812.453,1386.925a1.177,1.177,0,0,0,.3-.039,9.1,9.1,0,1,0-11.5-8.773,1.118,1.118,0,0,0,2.236,0,6.859,6.859,0,1,1,8.676,6.616,1.118,1.118,0,0,0,.295,2.2Z" fill="#b5545c"/>
      </g>
      <path id="Path_1151" data-name="Path 1151" d="M2870.259,1608.565s30.216,68-126.2,132.027l-165.611,130.254" fill="none" stroke="#000" stroke-miterlimit="10" stroke-width="2"/>
      <line id="Line_17" data-name="Line 17" x2="23.586" y2="38.008" transform="translate(2570.803 1832.91)" fill="none" stroke="#000" stroke-miterlimit="10" stroke-width="2"/>
      <line id="Line_18" data-name="Line 18" y1="124.564" x2="123.281" transform="translate(2644.886 1632.153)" fill="none" stroke="#000" stroke-miterlimit="10" stroke-width="2"/>
      <line id="Line_19" data-name="Line 19" y1="11.227" x2="36.822" transform="translate(2692.546 1828.579)" fill="none" stroke="#000" stroke-miterlimit="10" stroke-width="2"/>
      <line id="Line_20" data-name="Line 20" x1="8.797" y1="57.111" transform="translate(2712.927 1785.612)" fill="none" stroke="#000" stroke-miterlimit="10" stroke-width="2"/>
      <line id="Line_21" data-name="Line 21" y1="38.425" x2="51.937" transform="translate(2674.873 1775.251)" fill="none" stroke="#000" stroke-miterlimit="10" stroke-width="2"/>
      <path id="Path_1152" data-name="Path 1152" d="M2627.961,1714.05s38.355-20.107,32.655-58.416" fill="none" stroke="#000" stroke-miterlimit="10" stroke-width="2"/>
      <line id="Line_22" data-name="Line 22" x2="10.357" y2="7.788" transform="translate(2692.546 1515.108)" fill="none" stroke="#b5545c" stroke-linecap="round" stroke-miterlimit="10" stroke-width="2"/>
      <line id="Line_23" data-name="Line 23" x2="10.357" y2="7.788" transform="translate(2690.717 1525.17)" fill="none" stroke="#b5545c" stroke-linecap="round" stroke-miterlimit="10" stroke-width="2"/>
    </g>
    <g id="Group_718" data-name="Group 718" transform="matrix(0.985, -0.174, 0.174, 0.985, -836.553, 798.81)">
      <g id="Group_600" data-name="Group 600" transform="translate(1967.327 894.508)">
        <path id="Path_622" data-name="Path 622" d="M2019.38,957.241l-20.912-17.427,20.912-17.427a4.118,4.118,0,0,0,0-6.327l-24.708-20.59a4.118,4.118,0,0,0-6.754,3.163v31.238l-13.56-13.56a4.118,4.118,0,0,0-5.824,5.824l17.678,17.678-17.678,17.679a4.118,4.118,0,0,0,5.824,5.823l13.56-13.56v31.238a4.118,4.118,0,0,0,6.754,3.164l24.708-20.59A4.118,4.118,0,0,0,2019.38,957.241Zm-23.226-49.815,14.158,11.8-14.158,11.8Zm0,64.777v-23.6l14.158,11.8Z" transform="translate(-1967.327 -894.508)" fill="#3542e4"/>
      </g>
    </g>
  </g>
</svg>
